<mxfile host="app.diagrams.net" agent="Mozilla/5.0 (Windows NT 10.0; Win64; x64) AppleWebKit/537.36 (KHTML, like Gecko) Chrome/130.0.0.0 Safari/537.36" version="24.8.4">
  <diagram name="Halaman-1" id="AJ49GiABFBByPBzBmrVV">
    <mxGraphModel dx="483" dy="481" grid="1" gridSize="10" guides="1" tooltips="1" connect="1" arrows="1" fold="1" page="1" pageScale="1" pageWidth="850" pageHeight="1100" math="0" shadow="0">
      <root>
        <mxCell id="0" />
        <mxCell id="1" parent="0" />
        <mxCell id="lRZTdEplFzL0jjIZBWVV-5" value="" style="edgeStyle=orthogonalEdgeStyle;rounded=0;orthogonalLoop=1;jettySize=auto;html=1;" edge="1" parent="1" source="lRZTdEplFzL0jjIZBWVV-1" target="lRZTdEplFzL0jjIZBWVV-4">
          <mxGeometry relative="1" as="geometry" />
        </mxCell>
        <mxCell id="lRZTdEplFzL0jjIZBWVV-1" value="Start" style="ellipse;whiteSpace=wrap;html=1;" vertex="1" parent="1">
          <mxGeometry x="370" y="100" width="120" height="80" as="geometry" />
        </mxCell>
        <mxCell id="lRZTdEplFzL0jjIZBWVV-7" value="" style="edgeStyle=orthogonalEdgeStyle;rounded=0;orthogonalLoop=1;jettySize=auto;html=1;" edge="1" parent="1" source="lRZTdEplFzL0jjIZBWVV-4" target="lRZTdEplFzL0jjIZBWVV-6">
          <mxGeometry relative="1" as="geometry" />
        </mxCell>
        <mxCell id="lRZTdEplFzL0jjIZBWVV-4" value="int i = 10" style="whiteSpace=wrap;html=1;" vertex="1" parent="1">
          <mxGeometry x="380" y="220" width="100" height="40" as="geometry" />
        </mxCell>
        <mxCell id="lRZTdEplFzL0jjIZBWVV-9" value="" style="edgeStyle=orthogonalEdgeStyle;rounded=0;orthogonalLoop=1;jettySize=auto;html=1;" edge="1" parent="1" source="lRZTdEplFzL0jjIZBWVV-6" target="lRZTdEplFzL0jjIZBWVV-8">
          <mxGeometry relative="1" as="geometry" />
        </mxCell>
        <mxCell id="lRZTdEplFzL0jjIZBWVV-33" value="" style="edgeStyle=orthogonalEdgeStyle;rounded=0;orthogonalLoop=1;jettySize=auto;html=1;" edge="1" parent="1" source="lRZTdEplFzL0jjIZBWVV-6" target="lRZTdEplFzL0jjIZBWVV-32">
          <mxGeometry relative="1" as="geometry" />
        </mxCell>
        <mxCell id="lRZTdEplFzL0jjIZBWVV-6" value="i &amp;gt;=0&amp;nbsp;" style="rhombus;whiteSpace=wrap;html=1;" vertex="1" parent="1">
          <mxGeometry x="390" y="340" width="80" height="80" as="geometry" />
        </mxCell>
        <mxCell id="lRZTdEplFzL0jjIZBWVV-11" value="" style="edgeStyle=orthogonalEdgeStyle;rounded=0;orthogonalLoop=1;jettySize=auto;html=1;" edge="1" parent="1" source="lRZTdEplFzL0jjIZBWVV-8" target="lRZTdEplFzL0jjIZBWVV-10">
          <mxGeometry relative="1" as="geometry" />
        </mxCell>
        <mxCell id="lRZTdEplFzL0jjIZBWVV-8" value="int j&amp;nbsp; = 0" style="whiteSpace=wrap;html=1;" vertex="1" parent="1">
          <mxGeometry x="380" y="490" width="100" height="40" as="geometry" />
        </mxCell>
        <mxCell id="lRZTdEplFzL0jjIZBWVV-15" value="" style="edgeStyle=orthogonalEdgeStyle;rounded=0;orthogonalLoop=1;jettySize=auto;html=1;" edge="1" parent="1" source="lRZTdEplFzL0jjIZBWVV-10">
          <mxGeometry relative="1" as="geometry">
            <mxPoint x="430" y="760" as="targetPoint" />
          </mxGeometry>
        </mxCell>
        <mxCell id="lRZTdEplFzL0jjIZBWVV-17" value="" style="edgeStyle=orthogonalEdgeStyle;rounded=0;orthogonalLoop=1;jettySize=auto;html=1;" edge="1" parent="1" source="lRZTdEplFzL0jjIZBWVV-10" target="lRZTdEplFzL0jjIZBWVV-36">
          <mxGeometry relative="1" as="geometry">
            <mxPoint x="380" y="830" as="targetPoint" />
            <Array as="points">
              <mxPoint x="310" y="680" />
              <mxPoint x="310" y="835" />
            </Array>
          </mxGeometry>
        </mxCell>
        <mxCell id="lRZTdEplFzL0jjIZBWVV-10" value="j &amp;lt; i&amp;nbsp;" style="rhombus;whiteSpace=wrap;html=1;" vertex="1" parent="1">
          <mxGeometry x="390" y="630" width="80" height="80" as="geometry" />
        </mxCell>
        <mxCell id="lRZTdEplFzL0jjIZBWVV-23" value="" style="edgeStyle=orthogonalEdgeStyle;rounded=0;orthogonalLoop=1;jettySize=auto;html=1;" edge="1" parent="1" target="lRZTdEplFzL0jjIZBWVV-22">
          <mxGeometry relative="1" as="geometry">
            <mxPoint x="470" y="775.0000000000002" as="sourcePoint" />
          </mxGeometry>
        </mxCell>
        <mxCell id="lRZTdEplFzL0jjIZBWVV-19" value="" style="edgeStyle=orthogonalEdgeStyle;rounded=0;orthogonalLoop=1;jettySize=auto;html=1;exitX=1;exitY=0.5;exitDx=0;exitDy=0;" edge="1" parent="1" source="lRZTdEplFzL0jjIZBWVV-36">
          <mxGeometry relative="1" as="geometry">
            <mxPoint x="470" y="835.0000000000002" as="sourcePoint" />
            <mxPoint x="575" y="320" as="targetPoint" />
            <Array as="points">
              <mxPoint x="460" y="836" />
              <mxPoint x="575" y="836" />
            </Array>
          </mxGeometry>
        </mxCell>
        <mxCell id="lRZTdEplFzL0jjIZBWVV-21" value="" style="edgeStyle=orthogonalEdgeStyle;rounded=0;orthogonalLoop=1;jettySize=auto;html=1;" edge="1" parent="1" source="lRZTdEplFzL0jjIZBWVV-18">
          <mxGeometry relative="1" as="geometry">
            <mxPoint x="430" y="300" as="targetPoint" />
          </mxGeometry>
        </mxCell>
        <mxCell id="lRZTdEplFzL0jjIZBWVV-18" value="i - -&amp;nbsp;" style="whiteSpace=wrap;html=1;" vertex="1" parent="1">
          <mxGeometry x="540" y="280" width="70" height="40" as="geometry" />
        </mxCell>
        <mxCell id="lRZTdEplFzL0jjIZBWVV-31" value="" style="edgeStyle=orthogonalEdgeStyle;rounded=0;orthogonalLoop=1;jettySize=auto;html=1;" edge="1" parent="1" source="lRZTdEplFzL0jjIZBWVV-22">
          <mxGeometry relative="1" as="geometry">
            <mxPoint x="430" y="575" as="targetPoint" />
          </mxGeometry>
        </mxCell>
        <mxCell id="lRZTdEplFzL0jjIZBWVV-22" value="j ++" style="whiteSpace=wrap;html=1;" vertex="1" parent="1">
          <mxGeometry x="510" y="550" width="50" height="50" as="geometry" />
        </mxCell>
        <mxCell id="lRZTdEplFzL0jjIZBWVV-26" value="true" style="text;html=1;align=center;verticalAlign=middle;whiteSpace=wrap;rounded=0;" vertex="1" parent="1">
          <mxGeometry x="425" y="720" width="60" height="30" as="geometry" />
        </mxCell>
        <mxCell id="lRZTdEplFzL0jjIZBWVV-27" value="False" style="text;html=1;align=center;verticalAlign=middle;whiteSpace=wrap;rounded=0;" vertex="1" parent="1">
          <mxGeometry x="330" y="640" width="60" height="30" as="geometry" />
        </mxCell>
        <mxCell id="lRZTdEplFzL0jjIZBWVV-28" value="true" style="text;html=1;align=center;verticalAlign=middle;whiteSpace=wrap;rounded=0;" vertex="1" parent="1">
          <mxGeometry x="430" y="450" width="60" height="30" as="geometry" />
        </mxCell>
        <mxCell id="lRZTdEplFzL0jjIZBWVV-32" value="End&amp;nbsp;" style="ellipse;whiteSpace=wrap;html=1;" vertex="1" parent="1">
          <mxGeometry x="220" y="805" width="60" height="60" as="geometry" />
        </mxCell>
        <mxCell id="lRZTdEplFzL0jjIZBWVV-34" value="false&amp;nbsp;" style="text;html=1;align=center;verticalAlign=middle;whiteSpace=wrap;rounded=0;" vertex="1" parent="1">
          <mxGeometry x="320" y="350" width="60" height="30" as="geometry" />
        </mxCell>
        <mxCell id="lRZTdEplFzL0jjIZBWVV-35" value="print (&quot; * &quot;)" style="shape=parallelogram;perimeter=parallelogramPerimeter;whiteSpace=wrap;html=1;fixedSize=1;" vertex="1" parent="1">
          <mxGeometry x="375" y="760" width="110" height="30" as="geometry" />
        </mxCell>
        <mxCell id="lRZTdEplFzL0jjIZBWVV-36" value="println (&quot; &quot;)" style="shape=parallelogram;perimeter=parallelogramPerimeter;whiteSpace=wrap;html=1;fixedSize=1;" vertex="1" parent="1">
          <mxGeometry x="365" y="820" width="105" height="30" as="geometry" />
        </mxCell>
      </root>
    </mxGraphModel>
  </diagram>
</mxfile>
